<?xml version="1.0" encoding="UTF-8" standalone="no"?>
<!-- Created with Inkscape (http://www.inkscape.org/) -->

<svg
   width="100"
   height="100"
   viewBox="0 0 26.458333 26.458333"
   version="1.1"
   id="svg5"
   sodipodi:docname="reset white.svg"
   inkscape:version="1.2.2 (732a01da63, 2022-12-09)"
   xmlns:inkscape="http://www.inkscape.org/namespaces/inkscape"
   xmlns:sodipodi="http://sodipodi.sourceforge.net/DTD/sodipodi-0.dtd"
   xmlns="http://www.w3.org/2000/svg"
   xmlns:svg="http://www.w3.org/2000/svg">
  <sodipodi:namedview
     id="namedview7"
     pagecolor="#ffffff"
     bordercolor="#000000"
     borderopacity="0.25"
     inkscape:showpageshadow="2"
     inkscape:pageopacity="0.0"
     inkscape:pagecheckerboard="0"
     inkscape:deskcolor="#d1d1d1"
     inkscape:document-units="mm"
     showgrid="true"
     inkscape:zoom="2.8284271"
     inkscape:cx="151.14408"
     inkscape:cy="4.7729708"
     inkscape:window-width="1920"
     inkscape:window-height="1013"
     inkscape:window-x="-9"
     inkscape:window-y="-9"
     inkscape:window-maximized="1"
     inkscape:current-layer="layer1">
    <inkscape:grid
       type="xygrid"
       id="grid9" />
  </sodipodi:namedview>
  <defs
     id="defs2" />
  <g
     inkscape:label="图层 1"
     inkscape:groupmode="layer"
     id="layer1">
    <path
       id="path455"
       style="fill:#000000;stroke-width:0.264583"
       d="m -41.010416,1.3229154 a 9.260417,9.260417 0 0 0 -2.196249,0.2682007 l 2.390552,1.4262695 -0.577742,0.9684164 a 6.614583,6.614583 0 0 1 0.383439,-0.017053 6.614583,6.614583 0 0 1 6.614583,6.614584 6.614583,6.614583 0 0 1 -2.709912,5.333524 l 2.410705,1.438155 A 9.260417,9.260417 0 0 0 -31.75,10.583333 9.260417,9.260417 0 0 0 -41.010416,1.3229154 Z m -6.27817,2.4546305 a 9.260417,9.260417 0 0 0 -2.982247,6.8057861 9.260417,9.260417 0 0 0 9.260417,9.260416 9.260417,9.260417 0 0 0 2.26136,-0.28577 l -2.344043,-1.398365 0.586528,-0.983919 a 6.614583,6.614583 0 0 1 -0.503845,0.02222 6.614583,6.614583 0 0 1 -6.614583,-6.614583 6.614583,6.614583 0 0 1 2.75177,-5.3655639 z" />
    <path
       id="path455-6"
       style="display:none;fill:#000000;stroke-width:0.226785"
       d="m 13.229167,-27.78125 a 7.9375005,7.9375005 0 0 0 -7.9375006,7.9375 7.9375005,7.9375005 0 0 0 7.9375006,7.9375 7.9375005,7.9375005 0 0 0 7.9375,-7.9375 7.9375005,7.9375005 0 0 0 -7.9375,-7.9375 z m 0,2.268078 a 5.6696424,5.6696424 0 0 1 5.669421,5.669422 5.6696424,5.6696424 0 0 1 -5.669421,5.669421 5.6696424,5.6696424 0 0 1 -5.669422,-5.669421 5.6696424,5.6696424 0 0 1 5.669422,-5.669422 z" />
    <path
       id="path455-6-5"
       style="fill:#000000;stroke-width:0.226785"
       d="m 42.333333,-11.90625 a 7.9375005,7.9375005 0 0 0 -2.870109,0.538468 l 3.616833,2.2530925 -0.948262,1.6608806 a 3.4962797,3.4962797 0 0 1 0.201538,-0.011369 3.4962797,3.4962797 0 0 1 3.496427,3.4964277 3.4962797,3.4962797 0 0 1 -0.560689,1.898592 l 3.768762,2.348177 a 7.9375005,7.9375005 0 0 0 1.233,-4.246769 7.9375005,7.9375005 0 0 0 -7.9375,-7.9375 z m -6.700883,3.6927975 a 7.9375005,7.9375005 0 0 0 -1.236617,4.2447025 7.9375005,7.9375005 0 0 0 7.9375,7.9375 7.9375005,7.9375005 0 0 0 2.869592,-0.538469 L 41.586608,1.177189 42.53177,-0.478007 a 3.4962797,3.4962797 0 0 1 -0.198437,0.005684 3.4962797,3.4962797 0 0 1 -3.496427,-3.496427 3.4962797,3.4962797 0 0 1 0.562239,-1.897559 z" />
    <path
       id="path455-6-5-7"
       style="fill:#ffffff;stroke-width:0.219225"
       d="M 13.229167 5.55625 A 7.6729169 7.6729169 0 0 0 5.55625 13.229167 A 7.6729169 7.6729169 0 0 0 13.229167 20.902083 A 7.6729169 7.6729169 0 0 0 20.027718 16.775203 L 17.252177 15.230078 A 4.4979167 4.4979167 0 0 1 13.229167 17.727083 A 4.4979167 4.4979167 0 0 1 8.73125 13.229167 A 4.4979167 4.4979167 0 0 1 13.229167 8.73125 A 4.4979167 4.4979167 0 0 1 16.762284 10.445874 L 17.740519 8.6888753 L 20.220471 10.06967 A 7.6729169 7.6729169 0 0 0 13.229167 5.55625 z " />
    <path
       sodipodi:type="star"
       style="fill:#000000;stroke-width:0.264583"
       id="path511"
       inkscape:flatsided="true"
       sodipodi:sides="3"
       sodipodi:cx="-15.875"
       sodipodi:cy="-11.90625"
       sodipodi:r1="7.7138629"
       sodipodi:r2="3.8569317"
       sodipodi:arg1="2.0943951"
       sodipodi:arg2="3.1415927"
       inkscape:rounded="1"
       inkscape:randomized="0"
       d="m -19.731931,-5.2258488 c -11.570795,-6.6804012 -11.570795,-6.6804012 0,-13.3608022 11.5707939,-6.680401 11.5707939,-6.680401 11.5707939,6.680401 0,13.3608024 0,13.3608024 -11.5707939,6.6804012 z"
       inkscape:transform-center-x="0.70481428"
       transform="matrix(0.29238359,0,0,0.29238359,-37.301317,6.1270242)" />
    <path
       sodipodi:type="star"
       style="fill:#000000;stroke-width:0.264583"
       id="path511-9"
       inkscape:flatsided="true"
       sodipodi:sides="3"
       sodipodi:cx="-15.875"
       sodipodi:cy="-11.90625"
       sodipodi:r1="7.7138629"
       sodipodi:r2="3.8569317"
       sodipodi:arg1="2.0943951"
       sodipodi:arg2="3.1415927"
       inkscape:rounded="1"
       inkscape:randomized="0"
       d="m -19.731931,-5.2258488 c -11.570795,-6.6804012 -11.570795,-6.6804012 0,-13.3608022 11.5707939,-6.680401 11.5707939,-6.680401 11.5707939,6.680401 0,13.3608024 0,13.3608024 -11.5707939,6.6804012 z"
       inkscape:transform-center-x="-0.70481431"
       transform="matrix(-0.29238359,0,0,-0.29238359,-44.696115,15.008504)" />
    <path
       sodipodi:type="star"
       style="fill:#000000;stroke-width:0.264583"
       id="path511-3"
       inkscape:flatsided="true"
       sodipodi:sides="3"
       sodipodi:cx="-15.875"
       sodipodi:cy="-11.90625"
       sodipodi:r1="7.7138629"
       sodipodi:r2="3.8569317"
       sodipodi:arg1="2.0943951"
       sodipodi:arg2="3.1415927"
       inkscape:rounded="1"
       inkscape:randomized="0"
       d="m -19.731931,-5.2258488 c -11.570795,-6.6804012 -11.570795,-6.6804012 0,-13.3608022 11.5707939,-6.680401 11.5707939,-6.680401 11.5707939,6.680401 0,13.3608024 0,13.3608024 -11.5707939,6.6804012 z"
       inkscape:transform-center-x="0.57882147"
       transform="matrix(0.24011729,0,0,0.24011729,16.511713,-23.599437)" />
    <path
       sodipodi:type="star"
       style="fill:#000000;stroke-width:0.264583"
       id="path511-9-8"
       inkscape:flatsided="true"
       sodipodi:sides="3"
       sodipodi:cx="-15.875"
       sodipodi:cy="-11.90625"
       sodipodi:r1="7.7138629"
       sodipodi:r2="3.8569317"
       sodipodi:arg1="2.0943951"
       sodipodi:arg2="3.1415927"
       inkscape:rounded="1"
       inkscape:randomized="0"
       d="m -19.731931,-5.2258488 c -11.570795,-6.6804012 -11.570795,-6.6804012 0,-13.3608022 11.5707939,-6.680401 11.5707939,-6.680401 11.5707939,6.680401 0,13.3608024 0,13.3608024 -11.5707939,6.6804012 z"
       inkscape:transform-center-x="-0.5762319"
       transform="matrix(-0.23904276,0,0,-0.23904276,9.955389,-16.07527)" />
    <path
       id="path455-5"
       style="fill:#000000;stroke-width:0.264583"
       d="m 58.208334,9.2604166 a 9.260417,9.260417 0 0 0 -9.260417,9.2604174 9.260417,9.260417 0 0 0 9.260417,9.260416 9.260417,9.260417 0 0 0 9.260416,-9.260416 9.260417,9.260417 0 0 0 -9.260416,-9.2604174 z m 0,2.6458334 a 6.614583,6.614583 0 0 1 6.614583,6.614584 6.614583,6.614583 0 0 1 -6.614583,6.614583 6.614583,6.614583 0 0 1 -6.614584,-6.614583 6.614583,6.614583 0 0 1 6.614584,-6.614584 z" />
    <rect
       style="fill:#000000;stroke-width:0.264583"
       id="rect557-3"
       width="6.6145835"
       height="3.96875"
       x="49.475086"
       y="-21.578199"
       rx="0"
       ry="0"
       transform="rotate(30.81599)" />
    <rect
       style="fill:#000000;stroke-width:0.264583"
       id="rect557-6-6"
       width="6.6145835"
       height="3.96875"
       x="62.152142"
       y="-10.655309"
       rx="0"
       ry="0"
       transform="rotate(30.81599)" />
    <rect
       style="display:inline;fill:#000000;stroke-width:0.264583"
       id="rect557-3-6"
       width="6.6145835"
       height="3.96875"
       x="-8.0897121"
       y="-30.199778"
       rx="0"
       ry="0"
       transform="rotate(30.81599)" />
    <rect
       style="display:inline;fill:#000000;stroke-width:0.264583"
       id="rect557-6-6-5"
       width="6.6145835"
       height="3.96875"
       x="3.8667789"
       y="-21.407413"
       rx="0"
       ry="0"
       transform="rotate(30.81599)" />
    <path
       sodipodi:type="star"
       style="fill:#ffffff;stroke-width:0.264583"
       id="path511-3-2"
       inkscape:flatsided="true"
       sodipodi:sides="3"
       sodipodi:cx="-15.875"
       sodipodi:cy="-11.90625"
       sodipodi:r1="7.7138629"
       sodipodi:r2="3.8569317"
       sodipodi:arg1="2.0943951"
       sodipodi:arg2="3.1415927"
       inkscape:rounded="1"
       inkscape:randomized="0"
       d="m -19.731931,-5.2258488 c -11.570795,-6.6804012 -11.570795,-6.6804012 0,-13.3608022 11.5707939,-6.680401 11.5707939,-6.680401 11.5707939,6.680401 0,13.3608024 0,13.3608024 -11.5707939,6.6804012 z"
       transform="matrix(-0.19381179,-0.19381179,0.19381179,-0.19381179,18.090633,4.9524713)"
       inkscape:transform-center-y="-0.37695799"
       inkscape:transform-center-x="0.37695701" />
    <path
       sodipodi:type="star"
       style="fill:#000000;stroke-width:0.264583"
       id="path511-3-2-0"
       inkscape:flatsided="true"
       sodipodi:sides="3"
       sodipodi:cx="-15.875"
       sodipodi:cy="-11.90625"
       sodipodi:r1="7.7138629"
       sodipodi:r2="3.8569317"
       sodipodi:arg1="2.0943951"
       sodipodi:arg2="3.1415927"
       inkscape:rounded="1"
       inkscape:randomized="0"
       d="m -19.731931,-5.2258488 c -11.570795,-6.6804012 -11.570795,-6.6804012 0,-13.3608022 11.5707939,-6.680401 11.5707939,-6.680401 11.5707939,6.680401 0,13.3608024 0,13.3608024 -11.5707939,6.6804012 z"
       inkscape:transform-center-x="-0.80672345"
       transform="matrix(-0.3346599,0,0,-0.3346599,25.146514,-13.655132)" />
    <rect
       style="display:inline;fill:#000000;stroke-width:0.264583"
       id="rect557-3-6-8"
       width="6.6145835"
       height="3.96875"
       x="-4.4036469"
       y="-14.749969"
       rx="0"
       ry="0"
       transform="rotate(30.81599)" />
    <path
       sodipodi:type="star"
       style="fill:#000000;stroke-width:0.264583"
       id="path511-9-8-2"
       inkscape:flatsided="true"
       sodipodi:sides="3"
       sodipodi:cx="-15.875"
       sodipodi:cy="-11.90625"
       sodipodi:r1="7.7138629"
       sodipodi:r2="3.8569317"
       sodipodi:arg1="2.0943951"
       sodipodi:arg2="3.1415927"
       inkscape:rounded="1"
       inkscape:randomized="0"
       d="m -19.731931,-5.2258488 c -11.570795,-6.6804012 -11.570795,-6.6804012 0,-13.3608022 11.5707939,-6.680401 11.5707939,-6.680401 11.5707939,6.680401 0,13.3608024 0,13.3608024 -11.5707939,6.6804012 z"
       inkscape:transform-center-x="-0.85183933"
       transform="matrix(-0.35337518,0,0,-0.35337518,38.126473,-2.412724)" />
    <path
       sodipodi:type="star"
       style="fill:#000000;stroke-width:0.264583"
       id="path511-9-8-2-0"
       inkscape:flatsided="true"
       sodipodi:sides="3"
       sodipodi:cx="-15.875"
       sodipodi:cy="-11.90625"
       sodipodi:r1="7.7138629"
       sodipodi:r2="3.8569317"
       sodipodi:arg1="2.0943951"
       sodipodi:arg2="3.1415927"
       inkscape:rounded="1"
       inkscape:randomized="0"
       d="m -19.731931,-5.2258488 c -11.570795,-6.6804012 -11.570795,-6.6804012 0,-13.3608022 11.5707939,-6.680401 11.5707939,-6.680401 11.5707939,6.680401 0,13.3608024 0,13.3608024 -11.5707939,6.6804012 z"
       inkscape:transform-center-x="0.85183942"
       transform="matrix(0.35337518,0,0,0.35337518,46.540193,-5.524776)" />
    <path
       id="path455-6-5-71"
       style="fill:#000000;stroke-width:0.226785"
       d="m 83.406672,-17.176021 a 7.9375005,7.9375005 0 0 0 -7.9375,7.9374998 7.9375005,7.9375005 0 0 0 7.9375,7.9375 7.9375005,7.9375005 0 0 0 7.9375,-7.9375 7.9375005,7.9375005 0 0 0 -7.9375,-7.9374998 z m 0,4.441072 a 3.4962797,3.4962797 0 0 1 3.496427,3.4964278 3.4962797,3.4962797 0 0 1 -3.496427,3.496427 3.4962797,3.4962797 0 0 1 -3.496428,-3.496427 3.4962797,3.4962797 0 0 1 3.496428,-3.4964278 z" />
    <path
       sodipodi:type="star"
       style="fill:#000000;stroke-width:0.264583"
       id="path511-9-8-2-1"
       inkscape:flatsided="true"
       sodipodi:sides="3"
       sodipodi:cx="-15.875"
       sodipodi:cy="-11.90625"
       sodipodi:r1="7.7138629"
       sodipodi:r2="3.8569317"
       sodipodi:arg1="2.0943951"
       sodipodi:arg2="3.1415927"
       inkscape:rounded="1"
       inkscape:randomized="0"
       d="m -19.731931,-5.2258488 c -11.570795,-6.6804012 -11.570795,-6.6804012 0,-13.3608022 11.5707939,-6.680401 11.5707939,-6.680401 11.5707939,6.680401 0,13.3608024 0,13.3608024 -11.5707939,6.6804012 z"
       inkscape:transform-center-x="-0.85183933"
       transform="matrix(-0.35337518,0,0,-0.35337518,79.199812,-7.8322102)" />
    <rect
       style="display:inline;fill:#000000;stroke-width:0.310561"
       id="rect557-6-6-5-2-7"
       width="7.6840386"
       height="4.7069278"
       x="69.638855"
       y="-51.549416"
       rx="0"
       ry="0"
       transform="matrix(0.84872456,0.52883515,-0.49588269,0.86838952,0,0)" />
    <path
       sodipodi:type="star"
       style="fill:#000000;stroke-width:0.264583"
       id="path511-9-8-2-0-3"
       inkscape:flatsided="true"
       sodipodi:sides="3"
       sodipodi:cx="-15.875"
       sodipodi:cy="-11.90625"
       sodipodi:r1="7.7138629"
       sodipodi:r2="3.8569317"
       sodipodi:arg1="2.0943951"
       sodipodi:arg2="3.1415927"
       inkscape:rounded="1"
       inkscape:randomized="0"
       d="m -19.731931,-5.2258488 c -11.570795,-6.6804012 -11.570795,-6.6804012 0,-13.3608022 11.5707939,-6.680401 11.5707939,-6.680401 11.5707939,6.680401 0,13.3608024 0,13.3608024 -11.5707939,6.6804012 z"
       inkscape:transform-center-x="0.85183942"
       transform="matrix(0.35337518,0,0,0.35337518,87.597776,-10.812615)" />
    <rect
       style="display:inline;fill:#000000;stroke-width:0.310561"
       id="rect557-6-6-5-2-6-5"
       width="7.6840386"
       height="4.7069278"
       x="-66.060699"
       y="52.559986"
       rx="0"
       ry="0"
       transform="matrix(-0.84872456,-0.52883515,0.49588269,-0.86838952,0,0)" />
    <path
       id="path455-6-5-71-3"
       style="fill:#000000;stroke-width:0.226785"
       d="m -27.308927,-34.395834 a 7.9375005,7.9375005 0 0 0 -7.9375,7.937501 7.9375005,7.9375005 0 0 0 7.9375,7.9375 7.9375005,7.9375005 0 0 0 7.9375,-7.9375 7.9375005,7.9375005 0 0 0 -7.9375,-7.937501 z m 0,4.441072 a 3.4962797,3.4962797 0 0 1 3.496427,3.496429 3.4962797,3.4962797 0 0 1 -3.496427,3.496427 3.4962797,3.4962797 0 0 1 -3.496428,-3.496427 3.4962797,3.4962797 0 0 1 3.496428,-3.496429 z" />
    <path
       sodipodi:type="star"
       style="fill:#000000;stroke-width:0.264583"
       id="path511-9-8-2-1-1"
       inkscape:flatsided="true"
       sodipodi:sides="3"
       sodipodi:cx="-15.875"
       sodipodi:cy="-11.90625"
       sodipodi:r1="7.7138629"
       sodipodi:r2="3.8569317"
       sodipodi:arg1="2.0943951"
       sodipodi:arg2="3.1415927"
       inkscape:rounded="1"
       inkscape:randomized="0"
       d="m -19.731931,-5.2258488 c -11.570795,-6.6804012 -11.570795,-6.6804012 0,-13.3608022 11.5707939,-6.680401 11.5707939,-6.680401 11.5707939,6.680401 0,13.3608024 0,13.3608024 -11.5707939,6.6804012 z"
       inkscape:transform-center-x="-0.85183933"
       transform="matrix(-0.35337518,0,0,-0.35337518,-31.515787,-24.902307)" />
    <rect
       style="display:inline;fill:#000000;stroke-width:0.310561"
       id="rect557-6-6-5-2-7-7"
       width="7.6840386"
       height="4.7069278"
       x="-34.398884"
       y="-8.6058674"
       rx="0"
       ry="0"
       transform="matrix(0.84872456,0.52883515,-0.49588269,0.86838952,0,0)" />
    <path
       sodipodi:type="star"
       style="fill:#000000;stroke-width:0.264583"
       id="path511-9-8-2-0-3-9"
       inkscape:flatsided="true"
       sodipodi:sides="3"
       sodipodi:cx="-15.875"
       sodipodi:cy="-11.90625"
       sodipodi:r1="7.7138629"
       sodipodi:r2="3.8569317"
       sodipodi:arg1="2.0943951"
       sodipodi:arg2="3.1415927"
       inkscape:rounded="1"
       inkscape:randomized="0"
       d="m -19.731931,-5.2258488 c -11.570795,-6.6804012 -11.570795,-6.6804012 0,-13.3608022 11.5707939,-6.680401 11.5707939,-6.680401 11.5707939,6.680401 0,13.3608024 0,13.3608024 -11.5707939,6.6804012 z"
       inkscape:transform-center-x="0.9219705"
       transform="matrix(0.38246845,0,0,0.38246845,-22.585835,-27.196235)" />
    <rect
       style="display:inline;fill:#000000;stroke-width:0.310561"
       id="rect557-6-6-5-2-6-5-8"
       width="7.6840386"
       height="4.7069278"
       x="39.325432"
       y="7.4337769"
       rx="0"
       ry="0"
       transform="matrix(-0.84872456,-0.52883515,0.49588269,-0.86838952,0,0)" />
  </g>
</svg>
